# xmcd
#
# Track frame offsets:
#	150
#	6570
#	13076
#	21358
#	31424
#	43805
#	55711
#	79885
#	98218
#	117759
#	129487
#	148169
#	163362
#	171817
#	178536
#	194403
#
# Disc length: 2672 seconds
#
# Revision: 0
# Processed by: cddbd v1.5.2PL0 Copyright (c) Steve Scherf et al.
# Submitted via: audiograbber 1.83.01
#
DISCID=e00a6e10
DTITLE=Donny and Marie Osmond - Together
DYEAR=1900
DGENRE=Pop
TTITLE0=Donny Osmond - Puppy Love
TTITLE1=Donny and Marie Osmond - Medley: Paper Roses, I'm Leaving It (All) Up To 
TTITLE1=You
TTITLE2=Donny and Marie Osmond - Medley: Little Bit Country, Nine To Five
TTITLE3=Marie Osmond - Heartache Tonight
TTITLE4=Donny Osmond - I'm So Excited
TTITLE5=Marie Osmond - Heartache Looking For A Home
TTITLE6=Marie Osmond - Medley: You Ain't Woman Enough, (I Never Promised You A)
TTITLE6=Rose Garden, Snowbird, Here You Come Again,
TTITLE7=Donny Osmond - Too Young
TTITLE8=Marie Osmond - Memory (From Cats)
TTITLE9=Marie Osmond - Remember The Times We Had
TTITLE10=Donny Osmond - The Ratrace
TTITLE11=Donny and Marie Osmond - Take Another Chance On Love
TTITLE12=Donny and Marie Osmond - Turn Your Love Around
TTITLE13=Donny and Marie Osmond - Hanging Around
TTITLE14=Donny and Marie Osmond - Show Me
TTITLE15=Donny and Marie Osmond - End Of The Show
EXTD=
EXTT0=
EXTT1=
EXTT2=
EXTT3=
EXTT4=
EXTT5=
EXTT6=
EXTT7=
EXTT8=
EXTT9=
EXTT10=
EXTT11=
EXTT12=
EXTT13=
EXTT14=
EXTT15=
PLAYORDER=
